<mxfile host="app.diagrams.net" agent="Mozilla/5.0 (Windows NT 10.0; Win64; x64) AppleWebKit/537.36 (KHTML, like Gecko) Chrome/130.0.0.0 Safari/537.36 Edg/130.0.0.0" version="24.8.6">
  <diagram name="Pagina-1" id="l89qMIgsXHnXZNjTj-1u">
    <mxGraphModel dx="1042" dy="531" grid="1" gridSize="10" guides="1" tooltips="1" connect="1" arrows="1" fold="1" page="1" pageScale="1" pageWidth="1169" pageHeight="827" math="0" shadow="0">
      <root>
        <mxCell id="0" />
        <mxCell id="1" parent="0" />
        <mxCell id="GCixLg3bL1gwDdHwhddM-3" value="" style="rounded=0;whiteSpace=wrap;html=1;" vertex="1" parent="1">
          <mxGeometry x="80" y="80" width="200" height="360" as="geometry" />
        </mxCell>
        <mxCell id="GCixLg3bL1gwDdHwhddM-1" value="sfx 1&lt;div style=&quot;font-size: 18px;&quot;&gt;samples&lt;/div&gt;" style="rounded=0;whiteSpace=wrap;html=1;fontSize=18;" vertex="1" parent="1">
          <mxGeometry x="120" y="160" width="120" height="80" as="geometry" />
        </mxCell>
        <mxCell id="GCixLg3bL1gwDdHwhddM-2" value="sfx 2&lt;div style=&quot;font-size: 18px;&quot;&gt;samples&lt;/div&gt;" style="rounded=0;whiteSpace=wrap;html=1;fontSize=18;" vertex="1" parent="1">
          <mxGeometry x="120" y="280" width="120" height="80" as="geometry" />
        </mxCell>
        <mxCell id="GCixLg3bL1gwDdHwhddM-4" value="&lt;font style=&quot;font-size: 15px;&quot;&gt;CHIP RAM&lt;/font&gt;" style="text;html=1;align=left;verticalAlign=middle;whiteSpace=wrap;rounded=0;" vertex="1" parent="1">
          <mxGeometry x="80" y="80" width="200" height="30" as="geometry" />
        </mxCell>
        <mxCell id="GCixLg3bL1gwDdHwhddM-6" value="" style="shape=flexArrow;endArrow=classic;html=1;rounded=0;width=20;" edge="1" parent="1">
          <mxGeometry width="50" height="50" relative="1" as="geometry">
            <mxPoint x="280" y="99.5" as="sourcePoint" />
            <mxPoint x="480" y="99.5" as="targetPoint" />
            <Array as="points">
              <mxPoint x="360" y="99.5" />
            </Array>
          </mxGeometry>
        </mxCell>
        <mxCell id="GCixLg3bL1gwDdHwhddM-13" value="&lt;font style=&quot;font-size: 15px;&quot;&gt;DMA CHANNEL 0&lt;/font&gt;" style="edgeLabel;html=1;align=center;verticalAlign=middle;resizable=0;points=[];" vertex="1" connectable="0" parent="GCixLg3bL1gwDdHwhddM-6">
          <mxGeometry x="0.078" relative="1" as="geometry">
            <mxPoint as="offset" />
          </mxGeometry>
        </mxCell>
        <mxCell id="GCixLg3bL1gwDdHwhddM-7" value="&lt;font style=&quot;font-size: 15px;&quot;&gt;DAC&lt;/font&gt;" style="rounded=0;whiteSpace=wrap;html=1;" vertex="1" parent="1">
          <mxGeometry x="480" y="80" width="120" height="40" as="geometry" />
        </mxCell>
        <mxCell id="GCixLg3bL1gwDdHwhddM-8" value="" style="pointerEvents=1;verticalLabelPosition=bottom;shadow=0;dashed=0;align=center;html=1;verticalAlign=top;shape=mxgraph.electrical.electro-mechanical.loudspeaker;" vertex="1" parent="1">
          <mxGeometry x="850" y="85" width="25" height="50" as="geometry" />
        </mxCell>
        <mxCell id="GCixLg3bL1gwDdHwhddM-11" value="&lt;font style=&quot;font-size: 18px;&quot;&gt;Left Speaker&lt;/font&gt;" style="text;html=1;align=center;verticalAlign=middle;whiteSpace=wrap;rounded=0;fontSize=18;" vertex="1" parent="1">
          <mxGeometry x="820" y="40" width="100" height="30" as="geometry" />
        </mxCell>
        <mxCell id="GCixLg3bL1gwDdHwhddM-14" value="" style="shape=flexArrow;endArrow=classic;html=1;rounded=0;width=20;" edge="1" parent="1">
          <mxGeometry width="50" height="50" relative="1" as="geometry">
            <mxPoint x="280" y="179.5" as="sourcePoint" />
            <mxPoint x="480" y="179.5" as="targetPoint" />
            <Array as="points">
              <mxPoint x="360" y="179.5" />
            </Array>
          </mxGeometry>
        </mxCell>
        <mxCell id="GCixLg3bL1gwDdHwhddM-15" value="&lt;font style=&quot;font-size: 15px;&quot;&gt;DMA CHANNEL 1&lt;/font&gt;" style="edgeLabel;html=1;align=center;verticalAlign=middle;resizable=0;points=[];" vertex="1" connectable="0" parent="GCixLg3bL1gwDdHwhddM-14">
          <mxGeometry x="0.078" relative="1" as="geometry">
            <mxPoint as="offset" />
          </mxGeometry>
        </mxCell>
        <mxCell id="GCixLg3bL1gwDdHwhddM-16" value="&lt;font style=&quot;font-size: 15px;&quot;&gt;DAC&lt;/font&gt;" style="rounded=0;whiteSpace=wrap;html=1;" vertex="1" parent="1">
          <mxGeometry x="480" y="160" width="120" height="40" as="geometry" />
        </mxCell>
        <mxCell id="GCixLg3bL1gwDdHwhddM-17" value="" style="shape=flexArrow;endArrow=classic;html=1;rounded=0;width=20;" edge="1" parent="1">
          <mxGeometry width="50" height="50" relative="1" as="geometry">
            <mxPoint x="280" y="259.5" as="sourcePoint" />
            <mxPoint x="480" y="259.5" as="targetPoint" />
            <Array as="points">
              <mxPoint x="360" y="259.5" />
            </Array>
          </mxGeometry>
        </mxCell>
        <mxCell id="GCixLg3bL1gwDdHwhddM-18" value="&lt;font style=&quot;font-size: 15px;&quot;&gt;DMA CHANNEL 2&lt;/font&gt;" style="edgeLabel;html=1;align=center;verticalAlign=middle;resizable=0;points=[];" vertex="1" connectable="0" parent="GCixLg3bL1gwDdHwhddM-17">
          <mxGeometry x="0.078" relative="1" as="geometry">
            <mxPoint as="offset" />
          </mxGeometry>
        </mxCell>
        <mxCell id="GCixLg3bL1gwDdHwhddM-19" value="&lt;font style=&quot;font-size: 15px;&quot;&gt;DAC&lt;/font&gt;" style="rounded=0;whiteSpace=wrap;html=1;" vertex="1" parent="1">
          <mxGeometry x="480" y="240" width="120" height="40" as="geometry" />
        </mxCell>
        <mxCell id="GCixLg3bL1gwDdHwhddM-20" value="" style="shape=flexArrow;endArrow=classic;html=1;rounded=0;width=20;" edge="1" parent="1">
          <mxGeometry width="50" height="50" relative="1" as="geometry">
            <mxPoint x="280" y="339.5" as="sourcePoint" />
            <mxPoint x="480" y="339.5" as="targetPoint" />
            <Array as="points">
              <mxPoint x="360" y="339.5" />
            </Array>
          </mxGeometry>
        </mxCell>
        <mxCell id="GCixLg3bL1gwDdHwhddM-21" value="&lt;font style=&quot;font-size: 15px;&quot;&gt;DMA CHANNEL 3&lt;/font&gt;" style="edgeLabel;html=1;align=center;verticalAlign=middle;resizable=0;points=[];" vertex="1" connectable="0" parent="GCixLg3bL1gwDdHwhddM-20">
          <mxGeometry x="0.078" relative="1" as="geometry">
            <mxPoint as="offset" />
          </mxGeometry>
        </mxCell>
        <mxCell id="GCixLg3bL1gwDdHwhddM-22" value="&lt;font style=&quot;font-size: 15px;&quot;&gt;DAC&lt;/font&gt;" style="rounded=0;whiteSpace=wrap;html=1;" vertex="1" parent="1">
          <mxGeometry x="480" y="320" width="120" height="40" as="geometry" />
        </mxCell>
        <mxCell id="GCixLg3bL1gwDdHwhddM-24" value="" style="pointerEvents=1;verticalLabelPosition=bottom;shadow=0;dashed=0;align=center;html=1;verticalAlign=top;shape=mxgraph.electrical.electro-mechanical.loudspeaker;" vertex="1" parent="1">
          <mxGeometry x="720" y="190" width="25" height="50" as="geometry" />
        </mxCell>
        <mxCell id="GCixLg3bL1gwDdHwhddM-25" value="&lt;font style=&quot;font-size: 18px;&quot;&gt;Right Speaker&lt;/font&gt;" style="text;html=1;align=center;verticalAlign=middle;whiteSpace=wrap;rounded=0;fontSize=18;" vertex="1" parent="1">
          <mxGeometry x="690" y="150" width="100" height="30" as="geometry" />
        </mxCell>
        <mxCell id="GCixLg3bL1gwDdHwhddM-26" style="edgeStyle=orthogonalEdgeStyle;rounded=0;orthogonalLoop=1;jettySize=auto;html=1;entryX=0;entryY=0.4;entryDx=0;entryDy=0;entryPerimeter=0;" edge="1" parent="1" source="GCixLg3bL1gwDdHwhddM-16" target="GCixLg3bL1gwDdHwhddM-24">
          <mxGeometry relative="1" as="geometry" />
        </mxCell>
        <mxCell id="GCixLg3bL1gwDdHwhddM-27" style="edgeStyle=orthogonalEdgeStyle;rounded=0;orthogonalLoop=1;jettySize=auto;html=1;entryX=0;entryY=0.6;entryDx=0;entryDy=0;entryPerimeter=0;" edge="1" parent="1" source="GCixLg3bL1gwDdHwhddM-19" target="GCixLg3bL1gwDdHwhddM-24">
          <mxGeometry relative="1" as="geometry" />
        </mxCell>
        <mxCell id="GCixLg3bL1gwDdHwhddM-28" style="edgeStyle=orthogonalEdgeStyle;rounded=0;orthogonalLoop=1;jettySize=auto;html=1;entryX=0;entryY=0.6;entryDx=0;entryDy=0;entryPerimeter=0;" edge="1" parent="1" source="GCixLg3bL1gwDdHwhddM-22" target="GCixLg3bL1gwDdHwhddM-8">
          <mxGeometry relative="1" as="geometry">
            <Array as="points">
              <mxPoint x="820" y="340" />
              <mxPoint x="820" y="115" />
            </Array>
          </mxGeometry>
        </mxCell>
        <mxCell id="GCixLg3bL1gwDdHwhddM-29" style="edgeStyle=orthogonalEdgeStyle;rounded=0;orthogonalLoop=1;jettySize=auto;html=1;entryX=0;entryY=0.4;entryDx=0;entryDy=0;entryPerimeter=0;" edge="1" parent="1" source="GCixLg3bL1gwDdHwhddM-7" target="GCixLg3bL1gwDdHwhddM-8">
          <mxGeometry relative="1" as="geometry" />
        </mxCell>
        <mxCell id="GCixLg3bL1gwDdHwhddM-30" value="" style="endArrow=classic;startArrow=classic;html=1;rounded=0;" edge="1" parent="1">
          <mxGeometry width="50" height="50" relative="1" as="geometry">
            <mxPoint x="290" y="110" as="sourcePoint" />
            <mxPoint x="290" y="90" as="targetPoint" />
          </mxGeometry>
        </mxCell>
        <mxCell id="GCixLg3bL1gwDdHwhddM-31" value="&lt;font style=&quot;font-size: 18px;&quot;&gt;16 bits&lt;/font&gt;" style="text;html=1;align=center;verticalAlign=middle;whiteSpace=wrap;rounded=0;fontSize=18;" vertex="1" parent="1">
          <mxGeometry x="280" y="55" width="60" height="30" as="geometry" />
        </mxCell>
      </root>
    </mxGraphModel>
  </diagram>
</mxfile>
